<!DOCTYPE svg PUBLIC "-//W3C//DTD SVG 1.1//EN" "http://www.w3.org/Graphics/SVG/1.1/DTD/svg11.dtd">

<!-- Uploaded to: SVG Repo, www.svgrepo.com, Transformed by: SVG Repo Mixer Tools -->
<svg version="1.1" id="Icons" xmlns="http://www.w3.org/2000/svg" xmlns:xlink="http://www.w3.org/1999/xlink" viewBox="0 0 32 32" xml:space="preserve" width="800px" height="800px" fill="#000000">

<g id="SVGRepo_bgCarrier" stroke-width="0"/>

<g id="SVGRepo_tracerCarrier" stroke-linecap="round" stroke-linejoin="round"/>

<g id="SVGRepo_iconCarrier"> 
<style type="text/css"> 
.st0{fill:none;stroke:#0e98dd;stroke-width:2;stroke-linecap:round;stroke-linejoin:round;stroke-miterlimit:10;} .st1{fill:none;stroke:#0e98dd;stroke-width:2;stroke-linejoin:round;stroke-miterlimit:10;} </style>
 
<path 
class="st0" 
d="M24.5,17.5c1.9,
1.9,1.9,5.1,0,
7c-0.5,0.5-1,
0.8-1.6,1.1c-1.8,
0.7-3.9,0.4-5.4-1.1c-1.9-1.9-1.9-5.1,
0-7 S22.6,15.6,24.5,17.5z"/> 
<path class="st0" d="M25.5,
23l3.9,3.6c0.8,0.8,0.8,2,
0,2.8l0,0c-0.8,0.8-2,
0.8-2.8,0l-3.5-3.5"/> 
<path class="st0"
 d="M20.1,16.1c0.6-0.9,
 0.9-2,0.9-3.1v0c0-1.1,0.9-2,
 2-2h0l0-2.3c0-2.8-2.1-5.4-4.9-5.7c-2-0.2-3.8,
 0.6-4.9,2.1 c-0.8-0.2-1.6-0.1-2.6,0.6C9.6,
 6.4,9,7.7,9,9l0,1v1.5v1.3c0,2.2,1.2,
 4.3,3,5.4v0c0,2.3-1.6,4.2-3.8,
 4.8c-2.6,0.7-4.5,2.8-5.1,5.4 
 C3.1,28.7,3.3,29,3.7,29l22.5,0"/> 
 </g>

</svg>