<!DOCTYPE svg PUBLIC "-//W3C//DTD SVG 1.1//EN" "http://www.w3.org/Graphics/SVG/1.1/DTD/svg11.dtd">
<!-- Uploaded to: SVG Repo, www.svgrepo.com, Transformed by: SVG Repo Mixer Tools -->
<svg width="800px" height="800px" viewBox="0 0 48 48" id="Layer_2" data-name="Layer 2" xmlns="http://www.w3.org/2000/svg" fill="#000000" stroke="#000000">
<g id="SVGRepo_bgCarrier" stroke-width="0"/>
<g id="SVGRepo_tracerCarrier" stroke-linecap="round" stroke-linejoin="round" stroke="#030303" stroke-width="3.7439999999999998">
<defs>
<style>.cls-1{fill:none;stroke:#e10e0e;stroke-linecap:round;stroke-linejoin:round;}</style>
</defs>
<path class="cls-1" d="M15.63,7.15A10.12,10.12,0,0,0,7.77,23.66h0L24,42.71,40.07,23.85l.08-.09.08-.1h0A10.13,10.13,0,1,0,24,11.58a10.1,10.1,0,0,0-8.36-4.43Z"/>
</g>
<g id="SVGRepo_iconCarrier">
<defs>
<style>.cls-1{fill:none;stroke:#e10e0e;stroke-linecap:round;stroke-linejoin:round;}</style>
</defs>
<path class="cls-1" d="M15.63,7.15A10.12,10.12,0,0,0,7.77,23.66h0L24,42.71,40.07,23.85l.08-.09.08-.1h0A10.13,10.13,0,1,0,24,11.58a10.1,10.1,0,0,0-8.36-4.43Z"/>
</g>
</svg>