<!DOCTYPE svg PUBLIC "-//W3C//DTD SVG 1.1//EN" "http://www.w3.org/Graphics/SVG/1.1/DTD/svg11.dtd">

<!-- Uploaded to: SVG Repo, www.svgrepo.com, Transformed by: SVG Repo Mixer Tools -->
<svg fill="#ffffff" height="800px" width="800px" version="1.1" id="Capa_1" xmlns="http://www.w3.org/2000/svg" xmlns:xlink="http://www.w3.org/1999/xlink" viewBox="0 0 433 433" xml:space="preserve" stroke="#ffffff">

<g id="SVGRepo_bgCarrier" stroke-width="0"/>

<g id="SVGRepo_tracerCarrier" stroke-linecap="round" stroke-linejoin="round"/>

<g id="SVGRepo_iconCarrier"> <path d="M390.594,423c0,5.522-4.478,10-10,
10H259.706c-5.522,0-10-4.478-10-10s4.478-10,
10-10h120.888 C386.116,413,390.594,417.477,
390.594,423z M281.694,378c-5.523,0-10,
4.478-10,10c0,5.523,4.478,10,10,10l76.914-0.001
c5.523,0,10-4.477,10-10s-4.478-10-10-10H281.694z
M297.024,330.475l-79.231,59.283c-1.797,1.345-3.899,1.994-5.983,1.994
c-3.045,0-6.051-1.385-8.015-4.01c-3.309-4.422-2.406-10.689,
2.016-13.998l79.231-59.283l-12.7-16.974
c-1.589-2.124-2.269-4.792-1.891-7.417s1.783-4.992,
3.906-6.581l31.015-23.206c4.422-3.309,10.689-2.406,
13.998,2.016l37.663,50.336 c3.309,4.422,2.406,
10.689-2.016,13.998l-31.014,23.207c-2.123,
1.589-4.791,2.271-7.416,
1.891c-2.626-0.378-4.993-1.783-6.582-3.906
 L297.024,330.475z M294.346,293.512l25.682,
 34.323l15.001-11.225l-25.682-34.322L294.346,
 293.512z M70.645,10 c0-5.522,4.477-10,
 10-10h22.551c0.123,0,0.248,0,0.371,0h102.364c0.053,
 0,0.104,0,0.155,0h22.66c5.522,0,10,4.478,10,
 10 s-4.477,10-10,10H216.5v42.479c7,10.436,
 10.623,22.615,11.132,36.261c1.388,37.099-12.685,
 67.064-38.183,82.212 c-10.717,6.367-22.735,
 9.551-34.751,9.552c-12.02,
 0.001-24.03-3.184-34.75-9.552c-22.846-13.573-36.315-39.044-37.872-70.881
c-0.019-0.228-0.014-0.456-0.017-0.687c-0.15-3.476-0.129-7.027,
0.005-10.646c0.51-13.642,4.437-25.822,11.437-36.26V20H80.645
C75.122,20,70.645,15.523,70.645,10z M206.263,
119.651c-20.092,3.646-40.867-2.008-56.694-15.622
c-3.421,2.944-7.118,5.552-11.073,7.799c-10.824,
6.15-22.976,9.166-35.193,8.872c3.354,19.446,
12.67,34.63,26.854,43.057 c15.137,8.992,33.94,
8.992,49.077,0C193.67,155.18,203.065,139.601,
206.263,119.651z M200.703,76h-30.826 c-2.012,
4-4.39,9.125-7.112,13.236c12.449,10.603,29.108,
14.241,44.609,9.801C206.962,90.338,204.723,
82,200.703,76z M113.5,56 h49.224c0.154,0,
0.311,0,0.465,0H196.5V19.568l-83,0.002V56z
M101.954,100.724c13.547,0.786,28.506-4.148,
39.542-16.656 c0.29-0.395,0.612-0.69,0.967-1.045c1.814-2.177,
3.513-5.022,5.072-7.022h-38.849c-4.113,7-6.362,14.704-6.696
,23.648 C101.977,100.022,101.964,100.353,101.954,100.724z M200.983,
244.807l-15.073,53.937c-1.206,4.321-5.145,7.256-9.631,7.256h-46.425
c-4.487,0-8.425-2.926-9.632-7.248l-14.525-51.948c-9.898,
7.792-17.276,18.634-19.892,32.752L64.429,395h98.529
c5.522,0,10,4.478,10,10s-4.478,10-10,
10H52.406c-2.971,
0-5.788-1.374-7.688-3.658c-1.899-2.284-2.686-5.346-2.145-8.268
l23.565-127.268C74.422,231.091,116.585,211,
154.694,211c0.002,0-0.001,0,0.002,0c38.013,0,
80.065,20.041,88.327,64.648l2.52,13.673
c1.006,5.43-2.581,10.647-8.012,11.654c-5.426,
0.996-10.647-2.58-11.654-8.012l-2.52-13.6
C220.531,264.105,212.123,252.679,
200.983,244.807z M182.77,
235.627c-9.041-3.068-18.708-4.508-28.074-4.508 c-10.396,
0-21.161,1.79-31.038,5.571L137.443,286h31.245L182.77,
235.627z"/> </g>

</svg>