<!DOCTYPE svg PUBLIC "-//W3C//DTD SVG 1.1//EN" "http://www.w3.org/Graphics/SVG/1.1/DTD/svg11.dtd">

<!-- Uploaded to: SVG Repo, www.svgrepo.com, Transformed by: SVG Repo Mixer Tools -->
<svg fill="#ffffff" height="800px" width="800px" version="1.1" id="Capa_1" xmlns="http://www.w3.org/2000/svg" xmlns:xlink="http://www.w3.org/1999/xlink" viewBox="0 0 418.484 418.484" xml:space="preserve" stroke="#ffffff">

<g id="SVGRepo_bgCarrier" stroke-width="0"/>

<g id="SVGRepo_tracerCarrier" stroke-linecap="round" stroke-linejoin="round"/>

<g id="SVGRepo_iconCarrier"> 
<path d="M82.647,78.685c1.571,31.81,
15.046,57.253,37.877,70.817c10.72,
6.368,22.735,9.552,34.754,9.552 
c12.017,0,24.036-3.185
34.753-9.552c25.499-15.147,
39.327-45.113,
37.939-82.214c-1.429-38.149-28.365-59.561-57.086-65.854 
c-0.318-0.096-3.845-0.67-7.635-1.169c-2.788-0.367-12.428-0.398-17.177,
0.193c-2.682,0.333-5.391,0.738-7.332,1.186 c-28.37,
6.551-54.742,27.91-56.153,65.644c-0.135,
3.599-0.126,7.128,0.022,10.585C82.611,
78.146,82.624,78.416,82.647,78.685z 
M179.816,132.308c-15.135,8.992-33.941,
8.992-49.076,
0c-14.185-8.428-23.501-23.612-26.855-43.062 
c15.011,0.359,29.87-4.286,
42.205-13.428c1.393-1.032,2.744-2.114,
4.055-3.245c15.827,13.622,36.611,19.269,
56.702,15.63 C203.649,108.153,194.255,
123.731,179.816,132.308z M176.434,
23.872c16.882,6.633,30.443,20.86,
31.524,43.553 c-15.508,4.442-32.181,
0.716-44.636-9.904C169.679,47.913,
174.129,36.536,176.434,23.872z 
M102.574,68.037 c1.202-32.142,
27.277-47.507,52.707-48.531c0.533,
0.021,1.067,0.05,1.601,0.084c-3.019,
17.367-10.907,31.422-22.699,40.161 
c-9.225,6.835-20.437,10.109-31.646,
9.423C102.548,68.794,102.559,68.417,
102.574,68.037z M367.749,332.558 
c0.072,0.486,0.11,1.175,0.11,
1.681c0,5.523-4.477,10.245-9.999,
10.245h-17.657c-5.523,
0-10.001-4.754-10.001-10.277 
c0-0.508,0.038-1.284,
0.11-1.772c-4.438-1.022-7.746-5.066-7.746-9.814c0-5.522,
4.478-10.138,10-10.138h6.466l0.112-35.107 
l-40.902,12.814v108.293h10.578c5.522,0,10,
4.477,10,10c0,5.522-4.477,10-10,
10h-20.664c-0.048,0-0.095,0-0.143,0 
c-0.047,0-0.095,0-0.142,0h-20.671c-5.522,
0-10-4.477-10-10c0-5.522,4.477-10,
10-10h11.041V296.372l-41,12.678v41.434h6.216 
c5.522,0,10,4.472,10,9.995c0,4.749-3.311,
8.72-7.749,9.741c0.072,0.486,0.11,0.983,
0.11,1.49 c0.001,5.523-4.476,10.001-9.998,
10.002l-17.659,0.003c-5.523,
0.001-10.001-4.475-10.002-9.997c0-0.509,
0.038-1.008,0.111-1.495 
c-4.439-1.021-7.75-4.995-7.75-9.744c0-5.522,
4.477-9.996,10-9.996h6.721v-48.811c0-4.386,
2.847-8.259,7.036-9.554l53.964-16.682 
v-15.66c0-5.522,4.478-10,10-10s10,4.478,10,
10v9.479l47.822-14.833c0.985-0.318,
1.909-0.503,2.965-0.503 c4.946,0,
9.15,3.582,9.89,8.472c0.087,0.576,
0.123,1.082,0.11,1.648l0.003,
48.441h6.466c5.522,0,10,4.615,
10,10.138 C375.498,327.371,
372.187,331.537,367.749,
332.558z M117.536,208.333l28.469,
70.59c1.525,3.783,5.195,6.26,9.274,
6.26 c4.078,0,7.749-2.478,
9.274-6.26l28.52-70.713c13.729,6.816,
24.928,17.946,29.705,34.048c1.571,
5.294,7.133,8.312,12.432,6.742 
c5.295-1.571,8.313-7.137,
6.742-12.432c-5.613-18.917-18.271-34.279-36.603-44.424c-16.133-8.928-36.013-13.26-55.987-12.212 
c-19.391,1.021-37.926,7.149-52.189,
17.254c-16.34,11.574-26.868,
27.911-30.449,47.244l-23.57,
127.233 c-0.541,2.921,0.245,
5.932,2.145,8.216c1.9,2.284,
4.718,3.605,7.688,3.605l110.988-0.003c5.523,
0,10-4.478,10-10 c0-5.523-4.478-10-10-10l-98.966,
0.003L86.39,248.074C90.016,228.49,
102.583,215.774,117.536,208.333z 
M150.415,199.905 c7.773-0.408,
15.853,0.169,23.707,1.823l-18.843,
46.72l-18.821-46.669C141.194,
200.753,145.904,200.143,150.415,
199.905z"/> </g>

</svg>